<svg width="41" height="41" viewBox="0 0 41 41" fill="none" xmlns="http://www.w3.org/2000/svg">
<path d="M20.5 16.5C22.6217 16.5 24.6566 15.6571 26.1569 14.1569C27.6571 12.6566 28.5 10.6217 28.5 8.5C28.5 6.37827 27.6571 4.34344 26.1569 2.84315C24.6566 1.34285 22.6217 0.5 20.5 0.5C18.3783 0.5 16.3434 1.34285 14.8431 2.84315C13.3429 4.34344 12.5 6.37827 12.5 8.5C12.5 10.6217 13.3429 12.6566 14.8431 14.1569C16.3434 15.6571 18.3783 16.5 20.5 16.5ZM7.5 22.5C8.82608 22.5 10.0979 21.9732 11.0355 21.0355C11.9732 20.0979 12.5 18.8261 12.5 17.5C12.5 16.1739 11.9732 14.9021 11.0355 13.9645C10.0979 13.0268 8.82608 12.5 7.5 12.5C6.17392 12.5 4.90215 13.0268 3.96447 13.9645C3.02678 14.9021 2.5 16.1739 2.5 17.5C2.5 18.8261 3.02678 20.0979 3.96447 21.0355C4.90215 21.9732 6.17392 22.5 7.5 22.5ZM38.5 17.5C38.5 18.8261 37.9732 20.0979 37.0355 21.0355C36.0979 21.9732 34.8261 22.5 33.5 22.5C32.1739 22.5 30.9021 21.9732 29.9645 21.0355C29.0268 20.0979 28.5 18.8261 28.5 17.5C28.5 16.1739 29.0268 14.9021 29.9645 13.9645C30.9021 13.0268 32.1739 12.5 33.5 12.5C34.8261 12.5 36.0979 13.0268 37.0355 13.9645C37.9732 14.9021 38.5 16.1739 38.5 17.5ZM20.5 18.5C23.1522 18.5 25.6957 19.5536 27.5711 21.4289C29.4464 23.3043 30.5 25.8478 30.5 28.5V40.5H10.5V28.5C10.5 25.8478 11.5536 23.3043 13.4289 21.4289C15.3043 19.5536 17.8478 18.5 20.5 18.5ZM6.5 28.5C6.5 27.114 6.7 25.776 7.076 24.512L6.736 24.54C5.02176 24.7282 3.43733 25.5426 2.28653 26.827C1.13572 28.1114 0.499552 29.7755 0.5 31.5V40.5H6.5V28.5ZM40.5 40.5V31.5C40.5002 29.7167 39.8198 28.0006 38.5977 26.702C37.3757 25.4033 35.704 24.62 33.924 24.512C34.298 25.776 34.5 27.114 34.5 28.5V40.5H40.5Z" fill="#1B9EF8"/>
</svg>
