<svg width="41" height="41" viewBox="0 0 41 41" fill="none" xmlns="http://www.w3.org/2000/svg">
<path d="M18.3475 15.9858C17.6257 16.3306 16.9971 16.8434 16.5146 17.4814C16.032 18.1194 15.7096 18.8638 15.5743 19.6522C15.4391 20.4406 15.4949 21.2499 15.7372 22.0122C15.9795 22.7745 16.4012 23.4676 16.9668 24.0332C17.5324 24.5988 18.2255 25.0205 18.9878 25.2628C19.7501 25.5051 20.5594 25.5609 21.3478 25.4257C22.1362 25.2904 22.8806 24.968 23.5186 24.4854C24.1566 24.0029 24.6694 23.3743 25.0142 22.6525" stroke="#1B9EF8" stroke-width="2" stroke-linecap="round" stroke-linejoin="round"/>
<path d="M24.0667 10.2667C22.9501 9.87916 21.7501 9.66666 20.5001 9.66666C14.5167 9.66666 9.66675 14.5167 9.66675 20.5C9.66675 26.4833 14.5167 31.3333 20.5001 31.3333C26.4834 31.3333 31.3334 26.4833 31.3334 20.5C31.3334 19.25 31.1217 18.05 30.7334 16.9333" stroke="#1B9EF8" stroke-width="2" stroke-linecap="round" stroke-linejoin="round"/>
<path d="M28.4734 5.86084C26.0281 4.526 23.2859 3.82871 20.5 3.83334C11.295 3.83334 3.83337 11.295 3.83337 20.5C3.83337 29.705 11.295 37.1667 20.5 37.1667C29.705 37.1667 37.1667 29.705 37.1667 20.5C37.1715 17.7145 36.4745 14.9726 35.14 12.5275M37.1667 3.83334L20.5 20.5" stroke="#1B9EF8" stroke-width="2" stroke-linecap="round" stroke-linejoin="round"/>
</svg>
